<svg xmlns="http://www.w3.org/2000/svg" xmlns:xlink="http://www.w3.org/1999/xlink" width="940" zoomAndPan="magnify" viewBox="0 0 705 591.000005" height="788" preserveAspectRatio="xMidYMid meet" version="1.0"><path fill="#c8ede6" d="M 599.023438 338.511719 C 601.085938 334.285156 602.910156 329.839844 604.488281 325.183594 C 622.566406 271.878906 595.230469 208.027344 537.667969 192.613281 C 531.449219 114.523438 476.527344 60.949219 414.496094 51.808594 C 343.503906 41.347656 278.46875 86.414062 256.828125 158.039062 C 230.746094 148.804688 205.328125 149.929688 181.375 163.917969 C 170.507812 168.9375 160.566406 176.347656 151.648438 186.09375 C 138.558594 200.40625 130.042969 218.46875 126.578125 237.511719 C 121.441406 238.320312 116.394531 239.128906 111.636719 240.832031 C 83.902344 250.773438 66.402344 271.226562 61.601562 302.042969 C 58.617188 321.230469 64.644531 340.371094 68.007812 348.101562 C 81.292969 378.664062 112.097656 395.984375 143.398438 391.402344 C 144.957031 391.175781 147.222656 391.875 148.558594 393 C 150.214844 441.84375 173.949219 485.039062 209.550781 509.714844 C 266.679688 549.3125 340.179688 537.117188 386.546875 482.820312 C 406.417969 503.125 430.0625 512.988281 457.839844 509.40625 C 485.457031 505.847656 506.90625 490.617188 522.550781 465.855469 C 529.78125 467.796875 536.632812 470.59375 543.71875 471.367188 C 571.46875 474.402344 593.816406 463.246094 610.53125 438.441406 C 611.101562 437.589844 611.925781 436.9375 612.632812 436.191406 C 615.023438 430.714844 617.410156 425.242188 619.800781 419.769531 C 620.863281 411.460938 622.746094 403.144531 622.839844 394.851562 C 623.109375 372.515625 613.972656 352.15625 599.023438 338.511719 Z M 599.023438 338.511719 " fill-opacity="1" fill-rule="nonzero"/><path fill="#fdfcef" d="M 224.449219 502.273438 C 224.449219 502.273438 144.1875 502.273438 143.699219 502.273438 C 125.164062 502.273438 110.140625 487.257812 110.140625 468.734375 C 110.140625 452.578125 121.578125 439.09375 136.808594 435.917969 C 136.628906 434.503906 136.511719 433.070312 136.511719 431.609375 C 136.511719 412.429688 152.074219 396.875 171.269531 396.875 C 182.605469 396.875 192.644531 402.324219 198.988281 410.710938 C 200.605469 389.359375 219.699219 372.886719 242.03125 375.617188 C 258.363281 377.613281 271.871094 390.230469 274.875 406.390625 C 275.835938 411.578125 275.742188 416.605469 274.78125 421.324219 C 279.160156 416.613281 285.394531 413.648438 292.335938 413.648438 C 305.035156 413.648438 315.410156 423.535156 316.226562 436.019531 C 321.992188 434.742188 328.269531 434.824219 334.878906 437.308594 C 347.511719 442.050781 356.503906 453.929688 357.035156 467.402344 C 357.78125 486.535156 342.480469 502.285156 323.496094 502.285156 C 322.054688 502.285156 316.988281 502.285156 315.820312 502.285156 L 246.132812 502.285156 " fill-opacity="1" fill-rule="nonzero"/><path fill="#472b29" d="M 143.699219 505.703125 L 224.449219 505.703125 C 226.34375 505.703125 227.882812 504.167969 227.882812 502.273438 C 227.882812 500.378906 226.34375 498.84375 224.449219 498.84375 L 143.699219 498.84375 C 127.085938 498.84375 113.566406 485.335938 113.566406 468.734375 C 113.566406 454.5625 123.632812 442.164062 137.5 439.269531 C 139.25 438.90625 140.425781 437.261719 140.203125 435.484375 C 140.046875 434.207031 139.9375 432.917969 139.9375 431.609375 C 139.9375 414.339844 153.992188 400.304688 171.257812 400.304688 C 181.128906 400.304688 190.238281 404.855469 196.234375 412.777344 C 197.089844 413.917969 198.554688 414.402344 199.941406 414 C 201.308594 413.59375 202.289062 412.394531 202.390625 410.972656 C 203.105469 401.527344 207.738281 392.648438 215.09375 386.628906 C 222.527344 380.535156 231.953125 377.832031 241.59375 379.019531 C 256.464844 380.84375 268.753906 392.347656 271.476562 407.015625 C 272.328125 411.589844 272.300781 416.171875 271.390625 420.640625 C 271.085938 422.148438 271.8125 423.671875 273.1875 424.371094 C 274.5625 425.085938 276.230469 424.78125 277.273438 423.65625 C 281.21875 419.417969 286.5625 417.078125 292.308594 417.078125 C 303.078125 417.078125 312.066406 425.503906 312.773438 436.246094 C 312.84375 437.246094 313.335938 438.160156 314.140625 438.757812 C 314.941406 439.367188 315.980469 439.578125 316.941406 439.367188 C 322.714844 438.097656 328.179688 438.460938 333.644531 440.511719 C 345.101562 444.8125 353.105469 455.667969 353.574219 467.527344 C 353.898438 475.808594 350.917969 483.648438 345.191406 489.601562 C 339.460938 495.5625 331.742188 498.851562 323.46875 498.851562 L 246.105469 498.851562 C 244.207031 498.851562 242.671875 500.386719 242.671875 502.28125 C 242.671875 504.171875 244.207031 505.710938 246.105469 505.710938 L 323.484375 505.710938 C 333.636719 505.710938 343.105469 501.675781 350.148438 494.363281 C 357.183594 487.050781 360.84375 477.425781 360.445312 467.265625 C 359.875 452.683594 350.078125 439.351562 336.074219 434.097656 C 330.582031 432.035156 324.910156 431.367188 319.128906 432.046875 C 316.542969 419.546875 305.414062 410.21875 292.320312 410.21875 C 287.625 410.21875 283.027344 411.453125 278.976562 413.71875 C 278.976562 411.070312 278.734375 408.421875 278.246094 405.765625 C 274.972656 388.191406 260.253906 374.394531 242.445312 372.214844 C 230.917969 370.808594 219.652344 374.039062 210.753906 381.324219 C 203.867188 386.96875 198.972656 394.707031 196.761719 403.226562 C 189.8125 396.945312 180.839844 393.445312 171.265625 393.445312 C 150.207031 393.445312 133.078125 410.570312 133.078125 431.609375 C 133.078125 432.175781 133.09375 432.746094 133.125 433.308594 C 117.652344 437.925781 106.707031 452.351562 106.707031 468.734375 C 106.703125 489.128906 123.296875 505.703125 143.699219 505.703125 Z M 143.699219 505.703125 " fill-opacity="1" fill-rule="nonzero"/><path fill="#fdfcef" d="M 243.898438 428.40625 C 256.3125 427.589844 267 436.15625 267.765625 447.539062 C 267.859375 448.949219 267.796875 450.34375 267.59375 451.695312 C 269.988281 448.992188 273.53125 447.160156 277.601562 446.890625 C 285.050781 446.40625 291.484375 451.316406 292.417969 458.003906 C 293.769531 457.636719 295.183594 457.386719 296.648438 457.292969 C 307.507812 456.578125 316.859375 464.078125 317.53125 474.039062 " fill-opacity="1" fill-rule="nonzero"/><path fill="#472b29" d="M 317.523438 475.746094 C 317.566406 475.746094 317.605469 475.746094 317.640625 475.738281 C 318.589844 475.675781 319.300781 474.859375 319.242188 473.914062 C 318.507812 463.027344 308.339844 454.78125 296.53125 455.570312 C 295.589844 455.632812 294.65625 455.75 293.722656 455.933594 C 291.839844 449.292969 285.097656 444.648438 277.476562 445.183594 C 274.5625 445.371094 271.828125 446.273438 269.488281 447.804688 C 269.488281 447.675781 269.472656 447.550781 269.464844 447.421875 C 268.644531 435.105469 257.199219 425.742188 243.777344 426.695312 C 242.828125 426.757812 242.113281 427.574219 242.175781 428.519531 C 242.238281 429.46875 243.027344 430.269531 244.003906 430.113281 C 255.335938 429.394531 265.339844 437.226562 266.039062 447.652344 C 266.121094 448.917969 266.066406 450.191406 265.882812 451.449219 C 265.765625 452.195312 266.164062 452.9375 266.851562 453.257812 C 267.539062 453.582031 268.355469 453.410156 268.863281 452.839844 C 271.078125 450.335938 274.21875 448.832031 277.699219 448.609375 C 284.226562 448.375 289.882812 452.421875 290.699219 458.238281 C 290.769531 458.726562 291.042969 459.164062 291.457031 459.441406 C 291.867188 459.707031 292.371094 459.789062 292.855469 459.660156 C 294.140625 459.308594 295.445312 459.089844 296.75 458.992188 C 306.636719 458.363281 315.195312 465.140625 315.800781 474.148438 C 315.875 475.054688 316.632812 475.746094 317.523438 475.746094 Z M 317.523438 475.746094 " fill-opacity="1" fill-rule="nonzero"/><path fill="#fdfcef" d="M 130.105469 439.847656 C 141.769531 434.351562 155.261719 438.242188 160.238281 448.539062 C 160.855469 449.816406 161.316406 451.140625 161.617188 452.476562 " fill-opacity="1" fill-rule="nonzero"/><path fill="#472b29" d="M 161.617188 454.191406 C 161.742188 454.191406 161.871094 454.179688 162.003906 454.148438 C 162.921875 453.9375 163.507812 453.019531 163.292969 452.09375 C 162.957031 450.605469 162.449219 449.15625 161.789062 447.792969 C 156.414062 436.671875 141.867188 432.429688 129.378906 438.289062 C 128.519531 438.703125 128.148438 439.71875 128.554688 440.574219 C 128.960938 441.4375 129.988281 441.78125 130.839844 441.398438 C 141.648438 436.292969 154.140625 439.839844 158.699219 449.28125 C 159.25 450.410156 159.667969 451.613281 159.949219 452.855469 C 160.128906 453.65625 160.835938 454.191406 161.617188 454.191406 Z M 161.617188 454.191406 " fill-opacity="1" fill-rule="nonzero"/><path fill="#ffffff" d="M 301.515625 122.070312 L 232.652344 122.070312 C 230.757812 122.070312 229.222656 120.535156 229.222656 118.640625 C 229.222656 116.746094 230.757812 115.210938 232.652344 115.210938 L 301.515625 115.210938 C 303.410156 115.210938 304.945312 116.746094 304.945312 118.640625 C 304.945312 120.535156 303.414062 122.070312 301.515625 122.070312 Z M 324.726562 118.640625 C 324.726562 116.746094 323.1875 115.210938 321.292969 115.210938 L 311.367188 115.210938 C 309.472656 115.210938 307.933594 116.746094 307.933594 118.640625 C 307.933594 120.535156 309.472656 122.070312 311.367188 122.070312 L 321.292969 122.070312 C 323.195312 122.070312 324.726562 120.535156 324.726562 118.640625 Z M 352.566406 118.640625 C 352.566406 116.746094 351.027344 115.210938 349.132812 115.210938 L 331.652344 115.210938 C 329.757812 115.210938 328.21875 116.746094 328.21875 118.640625 C 328.21875 120.535156 329.757812 122.070312 331.652344 122.070312 L 349.132812 122.070312 C 351.035156 122.070312 352.566406 120.535156 352.566406 118.640625 Z M 352.566406 132.359375 C 352.566406 130.46875 351.027344 128.929688 349.132812 128.929688 L 283.113281 128.929688 C 281.21875 128.929688 279.683594 130.46875 279.683594 132.359375 C 279.683594 134.253906 281.21875 135.789062 283.113281 135.789062 L 349.132812 135.789062 C 351.035156 135.789062 352.566406 134.253906 352.566406 132.359375 Z M 274.65625 132.359375 C 274.65625 130.46875 273.117188 128.929688 271.222656 128.929688 L 267.242188 128.929688 C 265.347656 128.929688 263.808594 130.46875 263.808594 132.359375 C 263.808594 134.253906 265.347656 135.789062 267.242188 135.789062 L 271.222656 135.789062 C 273.117188 135.789062 274.65625 134.253906 274.65625 132.359375 Z M 258.34375 132.359375 C 258.34375 130.46875 256.808594 128.929688 254.910156 128.929688 L 244.910156 128.929688 C 243.015625 128.929688 241.476562 130.46875 241.476562 132.359375 C 241.476562 134.253906 243.015625 135.789062 244.910156 135.789062 L 254.910156 135.789062 C 256.808594 135.789062 258.34375 134.253906 258.34375 132.359375 Z M 321.058594 104.921875 C 321.058594 103.027344 319.523438 101.492188 317.628906 101.492188 L 283.113281 101.492188 C 281.21875 101.492188 279.683594 103.027344 279.683594 104.921875 C 279.683594 106.8125 281.21875 108.351562 283.113281 108.351562 L 317.628906 108.351562 C 319.527344 108.351562 321.058594 106.8125 321.058594 104.921875 Z M 321.058594 91.199219 C 321.058594 89.308594 319.523438 87.769531 317.628906 87.769531 L 308.996094 87.769531 C 307.101562 87.769531 305.566406 89.308594 305.566406 91.199219 C 305.566406 93.09375 307.101562 94.628906 308.996094 94.628906 L 317.628906 94.628906 C 319.527344 94.628906 321.058594 93.09375 321.058594 91.199219 Z M 298.617188 146.082031 C 298.617188 144.1875 297.078125 142.652344 295.183594 142.652344 L 283.113281 142.652344 C 281.21875 142.652344 279.683594 144.1875 279.683594 146.082031 C 279.683594 147.972656 281.21875 149.511719 283.113281 149.511719 L 295.183594 149.511719 C 297.085938 149.511719 298.617188 147.972656 298.617188 146.082031 Z M 595.660156 266.132812 L 526.800781 266.132812 C 524.90625 266.132812 523.367188 264.59375 523.367188 262.699219 C 523.367188 260.808594 524.90625 259.269531 526.800781 259.269531 L 595.667969 259.269531 C 597.5625 259.269531 599.101562 260.808594 599.101562 262.699219 C 599.101562 264.59375 597.5625 266.132812 595.660156 266.132812 Z M 618.875 262.699219 C 618.875 260.808594 617.335938 259.269531 615.441406 259.269531 L 605.511719 259.269531 C 603.617188 259.269531 602.082031 260.808594 602.082031 262.699219 C 602.082031 264.59375 603.617188 266.132812 605.511719 266.132812 L 615.441406 266.132812 C 617.34375 266.132812 618.875 264.59375 618.875 262.699219 Z M 646.710938 262.699219 C 646.710938 260.808594 645.175781 259.269531 643.28125 259.269531 L 625.800781 259.269531 C 623.90625 259.269531 622.367188 260.808594 622.367188 262.699219 C 622.367188 264.59375 623.90625 266.132812 625.800781 266.132812 L 643.28125 266.132812 C 645.175781 266.132812 646.710938 264.59375 646.710938 262.699219 Z M 632.804688 235.261719 C 632.804688 233.367188 631.265625 231.832031 629.371094 231.832031 L 563.351562 231.832031 C 561.457031 231.832031 559.921875 233.367188 559.921875 235.261719 C 559.921875 237.15625 561.457031 238.691406 563.351562 238.691406 L 629.371094 238.691406 C 631.265625 238.691406 632.804688 237.15625 632.804688 235.261719 Z M 554.894531 235.261719 C 554.894531 233.367188 553.355469 231.832031 551.460938 231.832031 L 547.480469 231.832031 C 545.585938 231.832031 544.046875 233.367188 544.046875 235.261719 C 544.046875 237.15625 545.585938 238.691406 547.480469 238.691406 L 551.460938 238.691406 C 553.363281 238.691406 554.894531 237.15625 554.894531 235.261719 Z M 538.574219 235.261719 C 538.574219 233.367188 537.039062 231.832031 535.144531 231.832031 L 525.148438 231.832031 C 523.253906 231.832031 521.714844 233.367188 521.714844 235.261719 C 521.714844 237.15625 523.253906 238.691406 525.148438 238.691406 L 535.144531 238.691406 C 537.042969 238.691406 538.574219 237.15625 538.574219 235.261719 Z M 615.207031 248.980469 C 615.207031 247.085938 613.667969 245.550781 611.773438 245.550781 L 577.261719 245.550781 C 575.367188 245.550781 573.828125 247.085938 573.828125 248.980469 C 573.828125 250.875 575.367188 252.410156 577.261719 252.410156 L 611.773438 252.410156 C 613.667969 252.410156 615.207031 250.875 615.207031 248.980469 Z M 615.207031 235.261719 C 615.207031 233.367188 613.667969 231.832031 611.773438 231.832031 L 603.144531 231.832031 C 601.25 231.832031 599.710938 233.367188 599.710938 235.261719 C 599.710938 237.15625 601.25 238.691406 603.144531 238.691406 L 611.773438 238.691406 C 613.667969 238.691406 615.207031 237.15625 615.207031 235.261719 Z M 570.699219 248.980469 C 570.699219 247.085938 569.160156 245.550781 567.265625 245.550781 L 555.195312 245.550781 C 553.300781 245.550781 551.765625 247.085938 551.765625 248.980469 C 551.765625 250.875 553.300781 252.410156 555.195312 252.410156 L 567.265625 252.410156 C 569.167969 252.410156 570.699219 250.875 570.699219 248.980469 Z M 570.699219 248.980469 " fill-opacity="1" fill-rule="nonzero"/><path fill="#fdfcef" d="M 543.71875 151.480469 C 556.644531 151.480469 567.863281 151.480469 568.019531 151.480469 C 582.507812 151.480469 594.253906 139.996094 594.253906 125.832031 C 594.253906 113.46875 585.316406 103.15625 573.417969 100.722656 C 573.554688 99.636719 573.652344 98.546875 573.652344 97.429688 C 573.652344 82.757812 561.484375 70.859375 546.484375 70.859375 C 537.628906 70.859375 529.78125 75.023438 524.824219 81.445312 C 523.554688 65.113281 508.636719 52.511719 491.183594 54.601562 C 478.421875 56.132812 467.863281 65.777344 465.515625 78.140625 C 464.757812 82.105469 464.839844 85.953125 465.589844 89.5625 C 462.171875 85.960938 457.296875 83.6875 451.871094 83.6875 C 441.945312 83.6875 433.835938 91.25 433.199219 100.796875 C 428.6875 99.824219 423.785156 99.886719 418.625 101.777344 C 408.75 105.402344 401.722656 114.492188 401.308594 124.800781 C 400.726562 139.433594 412.683594 151.480469 427.519531 151.480469 C 428.648438 151.480469 432.609375 151.480469 433.523438 151.480469 L 487.992188 151.480469 M 499.25 151.480469 L 501.722656 151.480469 " fill-opacity="1" fill-rule="nonzero"/><path fill="#472b29" d="M 568.019531 154.917969 L 543.71875 154.917969 C 541.824219 154.917969 540.285156 153.378906 540.285156 151.488281 C 540.285156 149.59375 541.824219 148.054688 543.71875 148.054688 L 568.019531 148.054688 C 580.589844 148.054688 590.820312 138.089844 590.820312 125.835938 C 590.820312 115.382812 583.214844 106.230469 572.722656 104.089844 C 570.964844 103.726562 569.777344 102.074219 570.003906 100.289062 C 570.128906 99.351562 570.210938 98.402344 570.210938 97.429688 C 570.210938 84.671875 559.5625 74.289062 546.476562 74.289062 C 538.980469 74.289062 532.074219 77.660156 527.527344 83.546875 C 526.664062 84.671875 525.1875 85.128906 523.828125 84.738281 C 522.46875 84.328125 521.5 83.132812 521.390625 81.71875 C 520.847656 74.722656 517.511719 68.382812 511.992188 63.855469 C 506.300781 59.191406 499.050781 57.140625 491.582031 58.003906 C 480.28125 59.355469 470.945312 67.898438 468.878906 78.769531 C 468.234375 82.167969 468.253906 85.5625 468.941406 88.867188 C 469.25 90.371094 468.527344 91.894531 467.167969 92.605469 C 465.816406 93.308594 464.148438 93.039062 463.089844 91.921875 C 460.152344 88.828125 456.164062 87.117188 451.867188 87.117188 C 443.839844 87.117188 437.140625 93.230469 436.617188 101.023438 C 436.550781 102.027344 436.054688 102.929688 435.257812 103.535156 C 434.460938 104.132812 433.445312 104.359375 432.472656 104.144531 C 428.085938 103.199219 423.9375 103.472656 419.796875 105.003906 C 411.132812 108.179688 405.078125 116.191406 404.726562 124.929688 C 404.488281 130.941406 406.671875 136.65625 410.871094 141.023438 C 415.230469 145.550781 421.144531 148.050781 427.507812 148.050781 L 487.972656 148.050781 C 489.867188 148.050781 491.402344 149.585938 491.402344 151.480469 C 491.402344 153.371094 489.867188 154.910156 487.972656 154.910156 L 427.507812 154.910156 C 419.371094 154.910156 411.503906 151.582031 405.921875 145.777344 C 400.410156 140.042969 397.554688 132.546875 397.871094 124.664062 C 398.328125 113.171875 406.191406 102.683594 417.429688 98.554688 C 421.617188 97.011719 425.941406 96.46875 430.335938 96.878906 C 432.699219 87.304688 441.519531 80.253906 451.859375 80.253906 C 455.242188 80.253906 458.566406 81.027344 461.566406 82.46875 C 461.628906 80.808594 461.820312 79.148438 462.136719 77.480469 C 464.753906 63.699219 476.527344 52.886719 490.765625 51.1875 C 500.136719 50.039062 509.199219 52.683594 516.34375 58.535156 C 521.480469 62.738281 525.121094 68.199219 526.960938 74.324219 C 532.390625 69.878906 539.222656 67.417969 546.46875 67.417969 C 563.347656 67.417969 577.070312 80.875 577.070312 97.414062 C 577.070312 97.648438 577.070312 97.882812 577.0625 98.121094 C 589.171875 101.929688 597.679688 113.132812 597.679688 125.824219 C 597.6875 141.867188 584.382812 154.917969 568.019531 154.917969 Z M 501.722656 154.917969 L 499.25 154.917969 C 497.355469 154.917969 495.816406 153.378906 495.816406 151.488281 C 495.816406 149.59375 497.355469 148.054688 499.25 148.054688 L 501.722656 148.054688 C 503.617188 148.054688 505.15625 149.59375 505.15625 151.488281 C 505.15625 153.378906 503.617188 154.917969 501.722656 154.917969 Z M 501.722656 154.917969 " fill-opacity="1" fill-rule="nonzero"/><path fill="#472b29" d="M 556.300781 115.101562 C 556.179688 115.101562 556.054688 115.085938 555.925781 115.058594 C 554.996094 114.855469 554.414062 113.933594 554.625 113.007812 C 554.882812 111.882812 555.273438 110.777344 555.792969 109.722656 C 559.941406 101.324219 571.390625 98.21875 581.347656 102.816406 C 582.207031 103.210938 582.582031 104.226562 582.183594 105.085938 C 581.785156 105.949219 580.761719 106.3125 579.90625 105.921875 C 571.660156 102.109375 562.214844 104.496094 558.875 111.230469 C 558.476562 112.042969 558.175781 112.890625 557.984375 113.75 C 557.796875 114.558594 557.089844 115.101562 556.300781 115.101562 Z M 520.882812 154.917969 L 513.285156 154.917969 C 511.390625 154.917969 509.851562 153.378906 509.851562 151.488281 C 509.851562 149.59375 511.390625 148.054688 513.285156 148.054688 L 520.882812 148.054688 C 522.777344 148.054688 524.316406 149.59375 524.316406 151.488281 C 524.316406 153.378906 522.785156 154.917969 520.882812 154.917969 Z M 520.882812 154.917969 " fill-opacity="1" fill-rule="nonzero"/><path fill="#fdfcee" d="M 350.621094 336.445312 L 184.824219 336.445312 C 164.898438 336.445312 148.59375 319.695312 148.59375 299.222656 L 148.59375 225.898438 C 148.59375 205.425781 164.898438 188.675781 184.824219 188.675781 L 494.4375 188.675781 " fill-opacity="1" fill-rule="nonzero"/><path fill="#472b29" d="M 350.621094 341.25 L 184.824219 341.25 C 162.203125 341.25 143.789062 322.398438 143.789062 299.222656 L 143.789062 225.898438 C 143.789062 202.722656 162.203125 183.867188 184.824219 183.867188 L 494.4375 183.867188 C 497.09375 183.867188 499.242188 186.011719 499.242188 188.667969 C 499.242188 191.324219 497.09375 193.46875 494.4375 193.46875 L 184.824219 193.46875 C 167.496094 193.46875 153.398438 208.011719 153.398438 225.898438 L 153.398438 299.222656 C 153.398438 317.09375 167.496094 331.644531 184.824219 331.644531 L 350.621094 331.644531 C 353.277344 331.644531 355.429688 333.792969 355.429688 336.445312 C 355.429688 339.101562 353.273438 341.25 350.621094 341.25 Z M 350.621094 341.25 " fill-opacity="1" fill-rule="nonzero"/><path fill="#8f9eb6" d="M 451.304688 241.621094 L 567.230469 349.734375 L 511.203125 354.554688 L 543.085938 425.023438 L 521.832031 434.675781 L 490.921875 363.242188 L 451.316406 400.890625 L 451.316406 241.621094 Z M 451.304688 241.621094 " fill-opacity="1" fill-rule="nonzero"/><path fill="#472b29" d="M 521.832031 439.484375 C 521.246094 439.484375 520.65625 439.375 520.101562 439.160156 C 518.898438 438.703125 517.929688 437.769531 517.417969 436.582031 L 489.242188 371.464844 L 454.625 404.375 C 453.226562 405.703125 451.179688 406.070312 449.421875 405.3125 C 447.65625 404.558594 446.511719 402.824219 446.511719 400.894531 L 446.511719 241.621094 C 446.511719 239.714844 447.644531 237.976562 449.394531 237.214844 C 451.144531 236.453125 453.183594 236.804688 454.585938 238.109375 L 570.511719 346.222656 C 571.898438 347.511719 572.394531 349.507812 571.777344 351.296875 C 571.160156 353.089844 569.539062 354.351562 567.644531 354.515625 L 518.378906 358.761719 L 547.460938 423.046875 C 548.550781 425.460938 547.480469 428.300781 545.070312 429.398438 L 523.820312 439.050781 C 523.191406 439.332031 522.511719 439.484375 521.832031 439.484375 Z M 490.921875 358.4375 C 491.238281 358.4375 491.5625 358.472656 491.882812 358.542969 C 493.421875 358.851562 494.710938 359.894531 495.335938 361.339844 L 524.300781 428.28125 L 536.730469 422.640625 L 506.828125 356.539062 C 506.183594 355.121094 506.273438 353.480469 507.0625 352.136719 C 507.851562 350.789062 509.238281 349.914062 510.796875 349.773438 L 556.0625 345.871094 L 456.109375 252.671875 L 456.117188 389.699219 L 487.605469 359.769531 C 488.511719 358.90625 489.699219 358.4375 490.921875 358.4375 Z M 490.921875 358.4375 " fill-opacity="1" fill-rule="nonzero"/><path fill="#1f212b" d="M 194.214844 238.238281 L 194.214844 257.777344 C 197.351562 253.707031 201.210938 252.5 205.207031 252.5 C 215.203125 252.5 219.628906 259.277344 219.628906 269.617188 L 219.628906 288.160156 L 210.917969 288.160156 L 210.917969 269.683594 C 210.917969 263.261719 207.566406 260.554688 202.921875 260.554688 C 197.785156 260.554688 194.207031 264.910156 194.207031 270.183594 L 194.207031 288.160156 L 185.496094 288.160156 L 185.496094 238.222656 Z M 194.214844 238.238281 " fill-opacity="1" fill-rule="nonzero"/><path fill="#1f212b" d="M 240.382812 243.089844 L 240.382812 253.078125 L 250.09375 253.078125 L 250.09375 260.5625 L 240.308594 260.5625 L 240.308594 275.753906 C 240.308594 279.109375 242.167969 280.742188 244.882812 280.742188 C 246.242188 280.742188 247.804688 280.3125 249.089844 279.671875 L 251.511719 287.09375 C 249.015625 288.097656 246.941406 288.523438 244.304688 288.589844 C 236.671875 288.878906 231.664062 284.523438 231.664062 275.75 L 231.664062 260.554688 L 225.101562 260.554688 L 225.101562 253.070312 L 231.664062 253.070312 L 231.664062 244.007812 Z M 240.382812 243.089844 " fill-opacity="1" fill-rule="nonzero"/><path fill="#1f212b" d="M 268.574219 243.089844 L 268.574219 253.078125 L 278.28125 253.078125 L 278.28125 260.5625 L 268.5 260.5625 L 268.5 275.753906 C 268.5 279.109375 270.359375 280.742188 273.070312 280.742188 C 274.429688 280.742188 275.996094 280.3125 277.277344 279.671875 L 279.703125 287.09375 C 277.203125 288.097656 275.128906 288.523438 272.492188 288.589844 C 264.859375 288.878906 259.855469 284.523438 259.855469 275.75 L 259.855469 260.554688 L 253.292969 260.554688 L 253.292969 253.070312 L 259.855469 253.070312 L 259.855469 244.007812 Z M 268.574219 243.089844 " fill-opacity="1" fill-rule="nonzero"/><path fill="#1f212b" d="M 285.621094 302.851562 L 285.621094 253 L 293.757812 253 L 294.324219 257.851562 C 297.039062 253.925781 301.746094 252.210938 305.75 252.210938 C 316.597656 252.210938 323.8125 260.273438 323.8125 270.617188 C 323.8125 280.894531 317.316406 289.015625 306.039062 289.015625 C 302.324219 289.015625 296.832031 287.878906 294.332031 284.027344 L 294.332031 302.859375 L 285.621094 302.859375 Z M 315.101562 270.617188 C 315.101562 265.121094 311.386719 260.628906 305.105469 260.628906 C 298.824219 260.628906 295.109375 265.121094 295.109375 270.617188 C 295.109375 276.105469 299.179688 280.605469 305.105469 280.605469 C 311.03125 280.605469 315.101562 276.113281 315.101562 270.617188 Z M 315.101562 270.617188 " fill-opacity="1" fill-rule="nonzero"/><path fill="#1f212b" d="M 338.992188 262.988281 C 338.992188 269.621094 328.859375 269.621094 328.859375 262.988281 C 328.859375 256.285156 338.992188 256.285156 338.992188 262.988281 Z M 338.992188 283.671875 C 338.992188 290.304688 328.859375 290.304688 328.859375 283.671875 C 328.859375 276.96875 338.992188 276.96875 338.992188 283.671875 Z M 338.992188 283.671875 " fill-opacity="1" fill-rule="nonzero"/><path fill="#1f212b" d="M 374.953125 232.402344 L 350.617188 294.140625 L 341.367188 294.140625 L 365.628906 232.402344 Z M 374.953125 232.402344 " fill-opacity="1" fill-rule="nonzero"/><path fill="#1f212b" d="M 407.414062 232.402344 L 383.074219 294.140625 L 373.828125 294.140625 L 398.089844 232.402344 Z M 407.414062 232.402344 " fill-opacity="1" fill-rule="nonzero"/><path fill="#472b29" d="M 465.480469 282.347656 C 464.15625 282.347656 462.898438 281.578125 462.335938 280.289062 L 447.3125 245.988281 C 446.550781 244.253906 447.339844 242.230469 449.085938 241.476562 C 450.816406 240.734375 452.847656 241.511719 453.601562 243.246094 L 468.625 277.546875 C 469.386719 279.28125 468.597656 281.304688 466.851562 282.058594 C 466.40625 282.257812 465.941406 282.347656 465.480469 282.347656 Z M 465.480469 282.347656 " fill-opacity="1" fill-rule="nonzero"/><path fill="#472b29" d="M 478.351562 309.363281 C 477.046875 309.363281 475.796875 308.613281 475.222656 307.347656 L 469 293.625 C 468.21875 291.902344 468.988281 289.867188 470.710938 289.089844 C 472.433594 288.308594 474.472656 289.078125 475.257812 290.800781 L 481.476562 304.519531 C 482.257812 306.242188 481.488281 308.277344 479.765625 309.054688 C 479.308594 309.261719 478.828125 309.363281 478.351562 309.363281 Z M 478.351562 309.363281 " fill-opacity="1" fill-rule="nonzero"/></svg>