<svg xmlns="http://www.w3.org/2000/svg" xmlns:xlink="http://www.w3.org/1999/xlink" width="940" zoomAndPan="magnify" viewBox="0 0 705 591.000005" height="788" preserveAspectRatio="xMidYMid meet" version="1.0"><defs><clipPath id="id1"><path d="M 55 7.773438 L 650 7.773438 L 650 582.054688 L 55 582.054688 Z M 55 7.773438 " clip-rule="nonzero"/></clipPath><clipPath id="id2"><path d="M 55 7.773438 L 650 7.773438 L 650 90 L 55 90 Z M 55 7.773438 " clip-rule="nonzero"/></clipPath></defs><g clip-path="url(#id1)"><path fill="#ecf1f4" d="M 75.53125 582.078125 L 629.425781 582.078125 C 640.753906 582.078125 649.941406 572.894531 649.941406 561.570312 L 649.941406 28.308594 C 649.941406 16.984375 640.753906 7.800781 629.425781 7.800781 L 75.53125 7.800781 C 64.203125 7.800781 55.015625 16.984375 55.015625 28.308594 L 55.015625 561.570312 C 55.015625 572.894531 64.203125 582.078125 75.53125 582.078125 " fill-opacity="1" fill-rule="nonzero"/></g><g clip-path="url(#id2)"><path fill="#c3c5c4" d="M 649.941406 28.308594 L 649.941406 89.839844 L 55.015625 89.839844 L 55.015625 28.308594 C 55.015625 16.980469 64.195312 7.800781 75.53125 7.800781 L 629.425781 7.800781 C 640.757812 7.800781 649.941406 16.980469 649.941406 28.308594 " fill-opacity="1" fill-rule="nonzero"/></g><path fill="#ecf1f4" d="M 188.363281 48.820312 C 188.363281 54.484375 183.769531 59.074219 178.105469 59.074219 C 172.441406 59.074219 167.847656 54.484375 167.847656 48.820312 C 167.847656 43.15625 172.441406 38.566406 178.105469 38.566406 C 183.769531 38.566406 188.363281 43.15625 188.363281 48.820312 " fill-opacity="1" fill-rule="nonzero"/><path fill="#ecf1f4" d="M 147.332031 48.820312 C 147.332031 54.484375 142.738281 59.074219 137.074219 59.074219 C 131.410156 59.074219 126.816406 54.484375 126.816406 48.820312 C 126.816406 43.15625 131.410156 38.566406 137.074219 38.566406 C 142.738281 38.566406 147.332031 43.15625 147.332031 48.820312 " fill-opacity="1" fill-rule="nonzero"/><path fill="#ecf1f4" d="M 106.304688 48.820312 C 106.304688 54.484375 101.710938 59.074219 96.046875 59.074219 C 90.382812 59.074219 85.789062 54.484375 85.789062 48.820312 C 85.789062 43.15625 90.382812 38.566406 96.046875 38.566406 C 101.710938 38.566406 106.304688 43.15625 106.304688 48.820312 " fill-opacity="1" fill-rule="nonzero"/><path fill="#4582cc" d="M 588.394531 314.785156 L 116.558594 314.785156 L 116.558594 150.703125 L 588.394531 150.703125 L 588.394531 314.785156 " fill-opacity="1" fill-rule="nonzero"/><path fill="#f4ca21" d="M 424.277344 212.234375 C 424.277344 217.898438 419.6875 222.488281 414.023438 222.488281 C 408.355469 222.488281 403.765625 217.898438 403.765625 212.234375 C 403.765625 206.570312 408.355469 201.980469 414.023438 201.980469 C 419.6875 201.980469 424.277344 206.570312 424.277344 212.234375 " fill-opacity="1" fill-rule="nonzero"/><path fill="#6daf71" d="M 342.222656 314.785156 L 198.617188 314.785156 L 270.417969 212.234375 Z M 342.222656 314.785156 " fill-opacity="1" fill-rule="nonzero"/><path fill="#6daf71" d="M 506.335938 314.785156 L 383.25 314.785156 L 444.792969 253.253906 Z M 506.335938 314.785156 " fill-opacity="1" fill-rule="nonzero"/><path fill="#83cf82" d="M 424.277344 314.785156 L 301.191406 314.785156 L 362.734375 232.742188 Z M 424.277344 314.785156 " fill-opacity="1" fill-rule="nonzero"/><path fill="#96a0a5" d="M 403.765625 355.804688 C 403.765625 361.464844 399.171875 366.058594 393.507812 366.058594 C 387.84375 366.058594 383.25 361.464844 383.25 355.804688 C 383.25 350.140625 387.84375 345.546875 393.507812 345.546875 C 399.171875 345.546875 403.765625 350.140625 403.765625 355.804688 " fill-opacity="1" fill-rule="nonzero"/><path fill="#96a0a5" d="M 362.734375 355.804688 C 362.734375 361.464844 358.144531 366.058594 352.476562 366.058594 C 346.8125 366.058594 342.222656 361.464844 342.222656 355.804688 C 342.222656 350.140625 346.8125 345.546875 352.476562 345.546875 C 358.144531 345.546875 362.734375 350.140625 362.734375 355.804688 " fill-opacity="1" fill-rule="nonzero"/><path fill="#96a0a5" d="M 321.707031 355.804688 C 321.707031 361.464844 317.113281 366.058594 311.449219 366.058594 C 305.785156 366.058594 301.191406 361.464844 301.191406 355.804688 C 301.191406 350.140625 305.785156 345.546875 311.449219 345.546875 C 317.113281 345.546875 321.707031 350.140625 321.707031 355.804688 " fill-opacity="1" fill-rule="nonzero"/><path fill="#4582cc" d="M 239.648438 478.863281 L 116.558594 478.863281 L 116.558594 396.824219 L 239.648438 396.824219 L 239.648438 478.863281 " fill-opacity="1" fill-rule="nonzero"/><path fill="#83cf82" d="M 229.390625 478.863281 L 126.816406 478.863281 L 178.105469 437.84375 Z M 229.390625 478.863281 " fill-opacity="1" fill-rule="nonzero"/><path fill="#4582cc" d="M 414.023438 478.863281 L 290.933594 478.863281 L 290.933594 396.824219 L 414.023438 396.824219 L 414.023438 478.863281 " fill-opacity="1" fill-rule="nonzero"/><path fill="#83cf82" d="M 403.765625 478.863281 L 301.191406 478.863281 L 352.476562 437.84375 Z M 403.765625 478.863281 " fill-opacity="1" fill-rule="nonzero"/><path fill="#4582cc" d="M 588.394531 478.863281 L 465.308594 478.863281 L 465.308594 396.824219 L 588.394531 396.824219 L 588.394531 478.863281 " fill-opacity="1" fill-rule="nonzero"/><path fill="#83cf82" d="M 578.136719 478.863281 L 475.566406 478.863281 L 526.851562 437.84375 Z M 578.136719 478.863281 " fill-opacity="1" fill-rule="nonzero"/><path fill="#c3c5c4" d="M 219.132812 530.136719 L 137.074219 530.136719 C 131.410156 530.136719 126.816406 525.546875 126.816406 519.882812 C 126.816406 514.21875 131.410156 509.628906 137.074219 509.628906 L 219.132812 509.628906 C 224.796875 509.628906 229.390625 514.21875 229.390625 519.882812 C 229.390625 525.546875 224.796875 530.136719 219.132812 530.136719 " fill-opacity="1" fill-rule="nonzero"/><path fill="#c3c5c4" d="M 393.507812 530.136719 L 311.449219 530.136719 C 305.785156 530.136719 301.191406 525.546875 301.191406 519.882812 C 301.191406 514.21875 305.785156 509.628906 311.449219 509.628906 L 393.507812 509.628906 C 399.171875 509.628906 403.765625 514.21875 403.765625 519.882812 C 403.765625 525.546875 399.171875 530.136719 393.507812 530.136719 " fill-opacity="1" fill-rule="nonzero"/><path fill="#c3c5c4" d="M 567.882812 530.136719 L 485.824219 530.136719 C 480.160156 530.136719 475.566406 525.546875 475.566406 519.882812 C 475.566406 514.21875 480.160156 509.628906 485.824219 509.628906 L 567.882812 509.628906 C 573.546875 509.628906 578.136719 514.21875 578.136719 519.882812 C 578.136719 525.546875 573.546875 530.136719 567.882812 530.136719 " fill-opacity="1" fill-rule="nonzero"/></svg>