<svg xmlns="http://www.w3.org/2000/svg" xmlns:xlink="http://www.w3.org/1999/xlink" width="940" zoomAndPan="magnify" viewBox="0 0 705 591.000005" height="788" preserveAspectRatio="xMidYMid meet" version="1.0"><defs><clipPath id="id1"><path d="M 44.695312 35.292969 L 660 35.292969 L 660 423 L 44.695312 423 Z M 44.695312 35.292969 " clip-rule="nonzero"/></clipPath><clipPath id="id2"><path d="M 185 497 L 519 497 L 519 554.914062 L 185 554.914062 Z M 185 497 " clip-rule="nonzero"/></clipPath></defs><g clip-path="url(#id1)"><path fill="#ffffff" d="M 90.984375 49.054688 C 72.777344 49.054688 57.96875 63.875 57.96875 82.097656 L 57.972656 376.082031 C 57.972656 394.300781 72.777344 409.125 90.984375 409.125 L 613.441406 409.121094 C 631.648438 409.121094 646.46875 394.300781 646.46875 376.082031 L 646.46875 82.097656 C 646.46875 63.875 631.648438 49.054688 613.441406 49.054688 Z M 613.441406 422.566406 L 90.984375 422.566406 C 65.375 422.566406 44.535156 401.714844 44.535156 376.082031 L 44.535156 82.097656 C 44.535156 56.464844 65.375 35.609375 90.984375 35.609375 L 613.441406 35.609375 C 639.066406 35.609375 659.902344 56.464844 659.902344 82.097656 L 659.902344 376.082031 C 659.902344 401.710938 639.066406 422.566406 613.441406 422.566406 Z M 613.441406 422.566406 " fill-opacity="1" fill-rule="evenodd"/></g><path fill="#ffffff" d="M 89.796875 80.34375 C 89.503906 80.34375 89.234375 80.609375 89.234375 80.902344 L 89.238281 377.273438 C 89.238281 377.566406 89.5 377.835938 89.796875 377.835938 L 614.644531 377.832031 C 614.925781 377.832031 615.203125 377.566406 615.203125 377.273438 L 615.203125 80.902344 C 615.203125 80.609375 614.921875 80.34375 614.644531 80.34375 Z M 614.644531 391.277344 L 89.796875 391.277344 C 82.085938 391.277344 75.800781 384.996094 75.800781 377.273438 L 75.800781 80.902344 C 75.800781 73.183594 82.085938 66.898438 89.796875 66.898438 L 614.644531 66.898438 C 622.355469 66.898438 628.636719 73.183594 628.636719 80.902344 L 628.640625 377.273438 C 628.640625 384.996094 622.355469 391.277344 614.644531 391.277344 Z M 614.644531 391.277344 " fill-opacity="1" fill-rule="evenodd"/><path fill="#ffffff" d="M 269.886719 510.992188 C 268.277344 510.992188 266.652344 510.414062 265.363281 509.242188 C 262.625 506.742188 262.425781 502.492188 264.917969 499.746094 C 286.625 475.871094 298.980469 447.453125 301.667969 415.285156 C 301.976562 411.585938 305.238281 408.832031 308.917969 409.148438 C 312.613281 409.453125 315.371094 412.703125 315.0625 416.40625 C 312.125 451.589844 298.601562 482.675781 274.855469 508.792969 C 273.539062 510.25 271.71875 510.992188 269.886719 510.992188 Z M 434.542969 510.992188 C 432.722656 510.992188 430.898438 510.25 429.570312 508.792969 C 405.835938 482.671875 392.300781 451.589844 389.375 416.40625 C 389.070312 412.703125 391.8125 409.453125 395.507812 409.148438 C 399.199219 408.820312 402.445312 411.585938 402.753906 415.285156 C 405.445312 447.449219 417.8125 475.871094 439.507812 499.746094 C 442.011719 502.492188 441.800781 506.746094 439.058594 509.242188 C 437.773438 510.414062 436.160156 510.992188 434.542969 510.992188 Z M 434.542969 510.992188 " fill-opacity="1" fill-rule="evenodd"/><g clip-path="url(#id2)"><path fill="#ffffff" d="M 202.976562 510.992188 C 200.90625 510.992188 199.152344 512.738281 199.152344 514.808594 L 199.152344 537.726562 C 199.152344 539.796875 200.902344 541.546875 202.972656 541.546875 L 501.464844 541.546875 C 503.539062 541.546875 505.285156 539.796875 505.285156 537.726562 L 505.285156 514.808594 C 505.285156 512.738281 503.535156 510.992188 501.464844 510.992188 Z M 501.464844 554.984375 L 202.976562 554.984375 C 193.460938 554.984375 185.71875 547.246094 185.71875 537.726562 L 185.71875 514.808594 C 185.71875 505.289062 193.457031 497.546875 202.972656 497.546875 L 501.464844 497.546875 C 510.980469 497.546875 518.71875 505.289062 518.71875 514.808594 L 518.722656 537.726562 C 518.722656 547.246094 510.980469 554.984375 501.464844 554.984375 Z M 501.464844 554.984375 " fill-opacity="1" fill-rule="evenodd"/></g><path fill="#ffffff" d="M 168.898438 391.28125 C 165.1875 391.28125 162.179688 388.269531 162.179688 384.558594 L 162.179688 73.625 C 162.179688 69.910156 165.1875 66.902344 168.898438 66.902344 C 172.605469 66.898438 175.613281 69.910156 175.613281 73.625 L 175.617188 384.558594 C 175.617188 388.269531 172.605469 391.28125 168.898438 391.28125 Z M 168.898438 391.28125 " fill-opacity="1" fill-rule="evenodd"/><path fill="#ffffff" d="M 145.863281 134.972656 L 105.554688 134.972656 C 101.84375 134.972656 98.835938 131.964844 98.835938 128.253906 C 98.839844 124.539062 101.84375 121.53125 105.554688 121.53125 L 145.863281 121.53125 C 149.570312 121.53125 152.578125 124.539062 152.578125 128.253906 C 152.578125 131.964844 149.570312 134.976562 145.863281 134.972656 Z M 145.863281 134.972656 " fill-opacity="1" fill-rule="evenodd"/><path fill="#ffffff" d="M 145.863281 175.308594 L 105.554688 175.308594 C 101.84375 175.308594 98.835938 172.300781 98.835938 168.585938 C 98.839844 164.875 101.84375 161.867188 105.554688 161.867188 L 145.863281 161.863281 C 149.570312 161.863281 152.578125 164.875 152.578125 168.585938 C 152.578125 172.300781 149.570312 175.308594 145.863281 175.308594 Z M 145.863281 175.308594 " fill-opacity="1" fill-rule="evenodd"/><path fill="#ffffff" d="M 145.863281 215.644531 L 105.554688 215.644531 C 101.84375 215.644531 98.835938 212.632812 98.835938 208.921875 C 98.839844 205.207031 101.84375 202.199219 105.554688 202.199219 L 145.863281 202.199219 C 149.570312 202.199219 152.578125 205.210938 152.578125 208.921875 C 152.578125 212.632812 149.570312 215.644531 145.863281 215.644531 Z M 145.863281 215.644531 " fill-opacity="1" fill-rule="evenodd"/><path fill="#ffffff" d="M 145.863281 255.976562 L 105.554688 255.976562 C 101.84375 255.976562 98.835938 252.96875 98.835938 249.257812 C 98.839844 245.542969 101.84375 242.53125 105.554688 242.53125 L 145.863281 242.53125 C 149.570312 242.53125 152.578125 245.542969 152.578125 249.257812 C 152.578125 252.96875 149.570312 255.976562 145.863281 255.976562 Z M 145.863281 255.976562 " fill-opacity="1" fill-rule="evenodd"/><path fill="#ffffff" d="M 145.863281 296.3125 L 105.554688 296.3125 C 101.84375 296.3125 98.835938 293.304688 98.835938 289.589844 C 98.839844 285.878906 101.84375 282.867188 105.554688 282.867188 L 145.863281 282.867188 C 149.570312 282.867188 152.578125 285.878906 152.578125 289.589844 C 152.578125 293.304688 149.570312 296.3125 145.863281 296.3125 Z M 145.863281 296.3125 " fill-opacity="1" fill-rule="evenodd"/><path fill="#ffffff" d="M 145.863281 336.644531 L 105.554688 336.644531 C 101.84375 336.644531 98.835938 333.636719 98.835938 329.925781 C 98.839844 326.210938 101.84375 323.203125 105.554688 323.203125 L 145.863281 323.203125 C 149.570312 323.203125 152.578125 326.210938 152.578125 329.925781 C 152.578125 333.636719 149.570312 336.648438 145.863281 336.644531 Z M 145.863281 336.644531 " fill-opacity="1" fill-rule="evenodd"/><path fill="#ffffff" d="M 502.890625 219.007812 L 287.925781 219.007812 C 284.199219 219.007812 281.207031 215.996094 281.207031 212.285156 C 281.207031 208.570312 284.199219 205.5625 287.921875 205.5625 L 502.890625 205.5625 C 506.597656 205.5625 509.605469 208.570312 509.605469 212.285156 C 509.609375 215.996094 506.597656 219.007812 502.890625 219.007812 Z M 502.890625 219.007812 " fill-opacity="1" fill-rule="evenodd"/><path fill="#ffffff" d="M 502.890625 252.617188 L 287.925781 252.617188 C 284.199219 252.617188 281.207031 249.609375 281.207031 245.894531 C 281.207031 242.183594 284.199219 239.171875 287.921875 239.171875 L 502.890625 239.171875 C 506.597656 239.171875 509.605469 242.183594 509.605469 245.894531 C 509.609375 249.609375 506.597656 252.617188 502.890625 252.617188 Z M 502.890625 252.617188 " fill-opacity="1" fill-rule="evenodd"/><path fill="#ffffff" d="M 295.988281 177.664062 C 294.265625 177.664062 292.542969 177.007812 291.226562 175.695312 C 288.609375 173.070312 288.609375 168.8125 291.226562 166.1875 L 314.027344 143.378906 L 291.226562 120.570312 C 288.609375 117.945312 288.609375 113.691406 291.226562 111.066406 C 293.859375 108.4375 298.113281 108.441406 300.730469 111.066406 L 328.273438 138.625 C 330.902344 141.253906 330.902344 145.507812 328.273438 148.132812 L 300.730469 175.695312 C 299.414062 177.007812 297.707031 177.664062 295.988281 177.664062 Z M 295.988281 177.664062 " fill-opacity="1" fill-rule="evenodd"/><path fill="#ffffff" d="M 232.828125 177.664062 C 231.105469 177.664062 229.398438 177.007812 228.082031 175.695312 L 200.539062 148.132812 C 197.910156 145.507812 197.910156 141.253906 200.539062 138.628906 L 228.082031 111.066406 C 230.699219 108.4375 234.953125 108.441406 237.585938 111.066406 C 240.203125 113.691406 240.203125 117.949219 237.585938 120.570312 L 214.789062 143.378906 L 237.585938 166.1875 C 240.203125 168.8125 240.203125 173.070312 237.585938 175.695312 C 236.269531 177.007812 234.546875 177.664062 232.828125 177.664062 Z M 232.828125 177.664062 " fill-opacity="1" fill-rule="evenodd"/><path fill="#ffffff" d="M 257.277344 176.722656 C 256.703125 176.722656 256.113281 176.652344 255.539062 176.496094 C 251.957031 175.53125 249.832031 171.847656 250.78125 168.261719 L 265.042969 115.019531 C 266.011719 111.433594 269.6875 109.304688 273.273438 110.265625 C 276.855469 111.226562 278.980469 114.910156 278.03125 118.496094 L 263.773438 171.742188 C 262.960938 174.746094 260.242188 176.726562 257.277344 176.722656 Z M 257.277344 176.722656 " fill-opacity="1" fill-rule="evenodd"/><path fill="#ffffff" d="M 585.535156 133.296875 L 370.554688 133.296875 C 366.847656 133.296875 363.835938 130.289062 363.835938 126.574219 C 363.835938 122.863281 366.84375 119.855469 370.554688 119.855469 L 585.535156 119.851562 C 589.242188 119.851562 592.25 122.863281 592.25 126.574219 C 592.253906 130.289062 589.242188 133.296875 585.535156 133.296875 Z M 585.535156 133.296875 " fill-opacity="1" fill-rule="evenodd"/><path fill="#ffffff" d="M 585.535156 166.90625 L 370.554688 166.90625 C 366.847656 166.90625 363.835938 163.898438 363.835938 160.1875 C 363.835938 156.472656 366.84375 153.464844 370.554688 153.464844 L 585.535156 153.464844 C 589.242188 153.464844 592.25 156.472656 592.25 160.1875 C 592.253906 163.898438 589.242188 166.90625 585.535156 166.90625 Z M 585.535156 166.90625 " fill-opacity="1" fill-rule="evenodd"/><path fill="#ffffff" d="M 494.828125 349.082031 C 493.109375 349.082031 491.398438 348.425781 490.085938 347.113281 L 462.542969 319.550781 C 461.285156 318.289062 460.570312 316.582031 460.570312 314.796875 C 460.570312 313.015625 461.28125 311.304688 462.542969 310.046875 L 490.085938 282.480469 C 492.703125 279.859375 496.957031 279.859375 499.585938 282.484375 C 502.203125 285.109375 502.203125 289.367188 499.585938 291.988281 L 476.789062 314.796875 L 499.585938 337.605469 C 502.203125 340.230469 502.203125 344.488281 499.585938 347.113281 C 498.273438 348.425781 496.550781 349.082031 494.828125 349.082031 Z M 494.828125 349.082031 " fill-opacity="1" fill-rule="evenodd"/><path fill="#ffffff" d="M 557.992188 349.082031 C 556.269531 349.082031 554.546875 348.425781 553.230469 347.113281 C 550.617188 344.488281 550.613281 340.230469 553.230469 337.605469 L 576.03125 314.796875 L 553.234375 291.988281 C 550.617188 289.363281 550.613281 285.109375 553.230469 282.484375 C 555.863281 279.859375 560.117188 279.859375 562.734375 282.484375 L 590.277344 310.046875 C 592.894531 312.667969 592.894531 316.925781 590.277344 319.550781 L 562.738281 347.113281 C 561.421875 348.425781 559.699219 349.082031 557.992188 349.082031 Z M 557.992188 349.082031 " fill-opacity="1" fill-rule="evenodd"/><path fill="#ffffff" d="M 533.523438 348.144531 C 530.558594 348.144531 527.855469 346.164062 527.042969 343.160156 L 512.785156 289.914062 C 511.832031 286.328125 513.960938 282.644531 517.542969 281.683594 C 521.125 280.722656 524.804688 282.851562 525.769531 286.4375 L 540.019531 339.679688 C 540.984375 343.265625 538.855469 346.953125 535.273438 347.914062 C 534.6875 348.070312 534.113281 348.144531 533.523438 348.144531 Z M 533.523438 348.144531 " fill-opacity="1" fill-rule="evenodd"/><path fill="#ffffff" d="M 420.261719 304.714844 L 205.285156 304.714844 C 201.574219 304.714844 198.566406 301.703125 198.566406 297.992188 C 198.566406 294.277344 201.574219 291.269531 205.28125 291.269531 L 420.261719 291.269531 C 423.972656 291.269531 426.980469 294.28125 426.980469 297.992188 C 426.980469 301.703125 423.972656 304.714844 420.261719 304.714844 Z M 420.261719 304.714844 " fill-opacity="1" fill-rule="evenodd"/><path fill="#ffffff" d="M 420.261719 338.328125 L 205.285156 338.328125 C 201.574219 338.328125 198.566406 335.316406 198.566406 331.605469 C 198.566406 327.890625 201.574219 324.882812 205.28125 324.882812 L 420.261719 324.882812 C 423.972656 324.882812 426.980469 327.890625 426.980469 331.605469 C 426.980469 335.316406 423.972656 338.328125 420.261719 338.328125 Z M 420.261719 338.328125 " fill-opacity="1" fill-rule="evenodd"/></svg>