<svg xmlns="http://www.w3.org/2000/svg" xmlns:xlink="http://www.w3.org/1999/xlink" width="1280" zoomAndPan="magnify" viewBox="0 0 960 540.000001" height="720" preserveAspectRatio="xMidYMid meet" version="1.0"><defs><clipPath id="id1"><path d="M 282 179 L 678.71875 179 L 678.71875 359 L 282 359 Z M 282 179 " clip-rule="nonzero"/></clipPath><clipPath id="id2"><path d="M 347 88 L 606 88 L 606 453.375 L 347 453.375 Z M 347 88 " clip-rule="nonzero"/></clipPath><clipPath id="id3"><path d="M 345 86.03125 L 606 86.03125 L 606 451 L 345 451 Z M 345 86.03125 " clip-rule="nonzero"/></clipPath></defs><g clip-path="url(#id1)"><path fill="#ffffff" d="M 629.179688 327.96875 C 627.839844 327.96875 626.570312 327.261719 625.9375 325.992188 C 624.988281 324.195312 625.691406 322.011719 627.488281 321.058594 C 655.796875 306.363281 671.394531 287.996094 671.394531 269.351562 C 671.394531 257.828125 665.691406 246.652344 654.421875 236.078125 C 650.9375 238.757812 646.640625 240.238281 642.171875 240.238281 C 631.078125 240.238281 622.066406 231.25 622.066406 220.21875 C 622.066406 218.527344 622.277344 216.835938 622.699219 215.25 C 585.761719 197.449219 533.195312 187.296875 477.738281 187.296875 C 390.976562 187.296875 314.148438 212.253906 290.910156 247.992188 C 289.816406 249.683594 287.527344 250.179688 285.839844 249.085938 C 284.148438 247.957031 283.65625 245.703125 284.78125 244.007812 C 296.824219 225.433594 321.648438 209.46875 356.542969 197.835938 C 391.578125 186.132812 433.511719 179.964844 477.738281 179.964844 C 535.730469 179.964844 590.832031 190.964844 628.859375 210.101562 C 630.621094 211.019531 631.359375 213.132812 630.550781 214.929688 C 629.777344 216.585938 629.390625 218.351562 629.390625 220.21875 C 629.390625 227.230469 635.128906 232.90625 642.171875 232.90625 C 645.796875 232.90625 649.28125 231.390625 651.675781 228.675781 C 653.015625 227.195312 655.304688 227.054688 656.816406 228.394531 C 671.359375 241.050781 678.71875 254.832031 678.71875 269.351562 C 678.71875 290.851562 661.710938 311.542969 630.867188 327.578125 C 630.304688 327.863281 629.742188 327.96875 629.179688 327.96875 Z M 477.738281 358.738281 C 384.640625 358.738281 304.359375 330.894531 282.5625 290.992188 C 281.578125 289.230469 282.246094 287.011719 284.007812 286.023438 C 285.769531 285.070312 288.023438 285.707031 288.972656 287.46875 C 298.621094 305.128906 322.351562 321.234375 355.730469 332.867188 C 390.167969 344.816406 433.476562 351.40625 477.738281 351.40625 C 516.328125 351.40625 553.582031 346.542969 585.550781 337.34375 C 587.523438 336.78125 589.53125 337.90625 590.09375 339.847656 C 590.65625 341.820312 589.53125 343.828125 587.59375 344.394531 C 554.953125 353.769531 516.996094 358.738281 477.738281 358.738281 " fill-opacity="1" fill-rule="nonzero"/></g><g clip-path="url(#id2)"><path fill="#ffffff" d="M 357.984375 426.800781 C 356.578125 426.800781 355.273438 425.988281 354.640625 424.648438 C 353.691406 422.535156 352.808594 420.242188 352.035156 417.917969 C 351.683594 416.824219 351.859375 415.660156 352.457031 414.710938 C 353.089844 413.757812 354.148438 413.160156 355.273438 413.089844 C 361.964844 412.664062 367.210938 407.097656 367.210938 400.398438 C 367.210938 393.386719 361.472656 387.675781 354.429688 387.675781 C 353.480469 387.675781 352.492188 387.78125 351.578125 387.992188 C 350.484375 388.238281 349.359375 387.992188 348.480469 387.324219 C 347.632812 386.617188 347.105469 385.5625 347.105469 384.46875 C 347.105469 384.011719 347.105469 383.550781 347.105469 383.09375 C 347.105469 338.367188 365.484375 280.984375 397.5625 225.644531 C 444.25 145.070312 509.074219 88.816406 555.269531 88.816406 C 563.96875 88.816406 571.855469 90.828125 578.6875 94.738281 C 596.503906 104.996094 605.9375 127.238281 605.9375 159.066406 C 605.9375 164.351562 605.65625 169.957031 605.128906 175.664062 C 604.953125 177.675781 603.15625 179.15625 601.148438 178.980469 C 599.144531 178.769531 597.664062 177.003906 597.839844 174.996094 C 598.367188 169.496094 598.613281 164.140625 598.613281 159.066406 C 598.613281 130.019531 590.480469 109.964844 575.023438 101.117188 C 569.320312 97.804688 562.664062 96.148438 555.269531 96.148438 C 534.707031 96.148438 508.546875 109.015625 481.539062 132.382812 C 453.335938 156.808594 426.46875 190.328125 403.898438 229.347656 C 373.089844 282.464844 355.167969 337.308594 354.429688 380.378906 C 365.519531 380.378906 374.535156 389.367188 374.535156 400.398438 C 374.535156 409.316406 368.621094 416.964844 360.414062 419.539062 C 360.730469 420.242188 361.015625 420.949219 361.332031 421.652344 C 362.140625 423.488281 361.332031 425.636719 359.5 426.484375 C 359.007812 426.695312 358.480469 426.800781 357.984375 426.800781 Z M 397.773438 453.375 C 395.90625 453.375 394.078125 453.269531 392.316406 453.09375 C 390.308594 452.882812 388.832031 451.085938 389.042969 449.074219 C 389.253906 447.066406 391.046875 445.585938 393.054688 445.796875 C 394.570312 445.972656 396.152344 446.042969 397.773438 446.042969 C 418.300781 446.042969 444.5 433.179688 471.503906 409.8125 C 499.671875 385.386719 526.539062 351.863281 549.144531 312.847656 C 567.03125 281.96875 580.972656 249.613281 589.390625 219.265625 C 589.917969 217.328125 591.925781 216.199219 593.898438 216.730469 C 595.832031 217.257812 596.996094 219.300781 596.433594 221.238281 C 587.839844 252.152344 573.6875 285.109375 555.480469 316.546875 C 508.792969 397.085938 443.933594 453.375 397.773438 453.375 " fill-opacity="1" fill-rule="nonzero"/></g><g clip-path="url(#id3)"><path fill="#ffffff" d="M 526.925781 447.207031 C 526.46875 447.207031 526.011719 447.136719 525.554688 446.960938 C 482.738281 429.832031 433.054688 379.429688 395.976562 315.382812 C 371.191406 272.664062 354.113281 227.515625 347.808594 188.25 C 347.492188 186.238281 348.867188 184.371094 350.835938 184.019531 C 352.84375 183.703125 354.710938 185.078125 355.0625 187.085938 C 361.191406 225.46875 377.984375 269.738281 402.316406 311.71875 C 438.617188 374.386719 486.890625 423.628906 528.265625 440.160156 C 530.164062 440.898438 531.082031 443.011719 530.304688 444.917969 C 529.742188 446.328125 528.371094 447.207031 526.925781 447.207031 Z M 571.46875 450.203125 C 570.023438 450.203125 568.652344 449.324219 568.085938 447.914062 C 567.3125 446.007812 568.261719 443.894531 570.128906 443.15625 C 571.714844 442.519531 573.261719 441.746094 574.742188 440.898438 C 590.304688 431.945312 598.507812 411.75 598.507812 382.460938 C 598.507812 338.683594 580.339844 282.21875 548.6875 227.550781 C 525.90625 188.25 498.863281 154.484375 470.449219 129.878906 C 443.230469 106.335938 416.859375 93.363281 396.152344 93.363281 C 388.6875 93.363281 382 95.054688 376.226562 98.371094 C 361.71875 106.6875 353.585938 124.875 352.5625 151.097656 C 353.195312 151.027344 353.796875 150.992188 354.429688 150.992188 C 358.300781 150.992188 362.035156 152.121094 365.308594 154.199219 C 367 155.292969 367.492188 157.550781 366.402344 159.242188 C 365.308594 160.96875 363.054688 161.460938 361.332031 160.367188 C 358.019531 158.21875 353.761719 157.761719 350.0625 159.101562 C 348.9375 159.523438 347.667969 159.347656 346.683594 158.640625 C 345.695312 157.972656 345.132812 156.84375 345.132812 155.644531 C 345.378906 124.207031 354.851562 102.210938 372.5625 91.988281 C 379.464844 88.042969 387.386719 86.03125 396.152344 86.03125 C 442.667969 86.03125 507.984375 142.710938 555.023438 223.882812 C 587.3125 279.609375 605.832031 337.414062 605.832031 382.460938 C 605.832031 414.535156 596.363281 436.914062 578.402344 447.242188 C 576.609375 448.300781 574.742188 449.183594 572.804688 449.957031 C 572.382812 450.132812 571.925781 450.203125 571.46875 450.203125 " fill-opacity="1" fill-rule="nonzero"/></g><path fill="#ffffff" d="M 642.171875 207.492188 C 635.128906 207.492188 629.390625 213.203125 629.390625 220.21875 C 629.390625 227.230469 635.128906 232.90625 642.171875 232.90625 C 649.210938 232.90625 654.953125 227.230469 654.953125 220.21875 C 654.953125 213.203125 649.210938 207.492188 642.171875 207.492188 Z M 642.171875 240.238281 C 631.078125 240.238281 622.066406 231.25 622.066406 220.21875 C 622.066406 209.152344 631.078125 200.164062 642.171875 200.164062 C 653.261719 200.164062 662.277344 209.152344 662.277344 220.21875 C 662.277344 231.25 653.261719 240.238281 642.171875 240.238281 " fill-opacity="1" fill-rule="nonzero"/><path fill="#ffffff" d="M 354.429688 387.710938 C 347.386719 387.710938 341.648438 393.386719 341.648438 400.398438 C 341.648438 407.414062 347.386719 413.125 354.429688 413.125 C 361.472656 413.125 367.210938 407.414062 367.210938 400.398438 C 367.210938 393.386719 361.472656 387.710938 354.429688 387.710938 Z M 354.429688 420.457031 C 343.339844 420.457031 334.324219 411.46875 334.324219 400.398438 C 334.324219 389.367188 343.339844 380.378906 354.429688 380.378906 C 365.519531 380.378906 374.535156 389.367188 374.535156 400.398438 C 374.535156 411.46875 365.519531 420.457031 354.429688 420.457031 " fill-opacity="1" fill-rule="nonzero"/><path fill="#ffffff" d="M 354.429688 158.324219 C 347.386719 158.324219 341.648438 164.035156 341.648438 171.046875 C 341.648438 178.0625 347.386719 183.773438 354.429688 183.773438 C 361.472656 183.773438 367.210938 178.0625 367.210938 171.046875 C 367.210938 164.035156 361.472656 158.324219 354.429688 158.324219 Z M 354.429688 191.105469 C 343.339844 191.105469 334.324219 182.117188 334.324219 171.046875 C 334.324219 160.015625 343.339844 151.027344 354.429688 151.027344 C 365.519531 151.027344 374.535156 160.015625 374.535156 171.046875 C 374.535156 182.117188 365.519531 191.105469 354.429688 191.105469 " fill-opacity="1" fill-rule="nonzero"/><path fill="#ffffff" d="M 431.894531 314.820312 L 515.378906 314.820312 L 515.378906 285.53125 C 515.378906 278.621094 509.707031 273.019531 502.773438 273.019531 L 444.957031 273.019531 C 437.773438 273.019531 431.894531 278.832031 431.894531 285.988281 Z M 519.039062 322.152344 L 428.230469 322.152344 C 426.222656 322.152344 424.570312 320.53125 424.570312 318.484375 L 424.570312 285.988281 C 424.570312 274.816406 433.722656 265.6875 444.957031 265.6875 L 502.773438 265.6875 C 513.757812 265.6875 522.699219 274.605469 522.699219 285.53125 L 522.699219 318.484375 C 522.699219 320.53125 521.046875 322.152344 519.039062 322.152344 " fill-opacity="1" fill-rule="nonzero"/><path fill="#ffffff" d="M 473.617188 207.527344 C 462.101562 207.527344 452.703125 216.871094 452.703125 228.359375 C 452.703125 239.851562 462.101562 249.191406 473.617188 249.191406 C 485.167969 249.191406 494.566406 239.851562 494.566406 228.359375 C 494.566406 216.871094 485.167969 207.527344 473.617188 207.527344 Z M 473.617188 256.523438 C 458.054688 256.523438 445.378906 243.867188 445.378906 228.359375 C 445.378906 212.816406 458.054688 200.199219 473.617188 200.199219 C 489.214844 200.199219 501.890625 212.816406 501.890625 228.359375 C 501.890625 243.867188 489.214844 256.523438 473.617188 256.523438 " fill-opacity="1" fill-rule="nonzero"/></svg>